<mxfile host="" modified="2020-06-09T18:31:19.122Z" agent="5.0 (Macintosh; Intel Mac OS X 10_14_6) AppleWebKit/537.36 (KHTML, like Gecko) Code/1.45.1 Chrome/78.0.3904.130 Electron/7.2.4 Safari/537.36" etag="9I_W270vWHNypmDNYi51" version="13.1.3">
    <diagram id="6hGFLwfOUW9BJ-s0fimq" name="C">
        <mxGraphModel dx="753" dy="443" grid="1" gridSize="10" guides="1" tooltips="1" connect="1" arrows="1" fold="1" page="1" pageScale="1" pageWidth="827" pageHeight="1169" math="0" shadow="0">
            <root>
                <mxCell id="0"/>
                <mxCell id="1" parent="0"/>
                <mxCell id="2" value="&lt;table border=&quot;0&quot; width=&quot;100%&quot; style=&quot;width: 100% ; height: 100% ; border-collapse: collapse&quot;&gt;&lt;tbody&gt;&lt;tr&gt;&lt;td&gt;Value 1&lt;/td&gt;&lt;td&gt;Value 2&lt;/td&gt;&lt;td&gt;Value 3&lt;/td&gt;&lt;td&gt;Value4&lt;br&gt;&lt;/td&gt;&lt;td&gt;Value5&lt;/td&gt;&lt;/tr&gt;&lt;tr&gt;&lt;td&gt;Value 4&lt;/td&gt;&lt;td&gt;Value 5&lt;/td&gt;&lt;td&gt;Value 6&lt;/td&gt;&lt;td&gt;&lt;br&gt;&lt;/td&gt;&lt;td&gt;&lt;br&gt;&lt;/td&gt;&lt;/tr&gt;&lt;tr&gt;&lt;td&gt;Value 7&lt;/td&gt;&lt;td&gt;Value 8&lt;/td&gt;&lt;td&gt;Value 9&lt;/td&gt;&lt;td&gt;&lt;br&gt;&lt;/td&gt;&lt;td&gt;&lt;br&gt;&lt;/td&gt;&lt;/tr&gt;&lt;tr&gt;&lt;td&gt;valuw4&lt;/td&gt;&lt;td&gt;&lt;br&gt;&lt;/td&gt;&lt;td&gt;&lt;br&gt;&lt;/td&gt;&lt;td&gt;&lt;br&gt;&lt;/td&gt;&lt;td&gt;&lt;br&gt;&lt;/td&gt;&lt;/tr&gt;&lt;tr&gt;&lt;td&gt;value6&lt;/td&gt;&lt;td&gt;&lt;br&gt;&lt;/td&gt;&lt;td&gt;&lt;br&gt;&lt;/td&gt;&lt;td&gt;&lt;br&gt;&lt;/td&gt;&lt;td&gt;&lt;br&gt;&lt;/td&gt;&lt;/tr&gt;&lt;/tbody&gt;&lt;/table&gt;" style="text;html=1;strokeColor=#c0c0c0;fillColor=none;overflow=fill;align=center;" vertex="1" parent="1">
                    <mxGeometry x="160" y="200" width="340" height="200" as="geometry"/>
                </mxCell>
                <mxCell id="4" value="0" style="text;html=1;align=center;verticalAlign=middle;resizable=0;points=[];autosize=1;" vertex="1" parent="1">
                    <mxGeometry x="200" y="180" width="20" height="20" as="geometry"/>
                </mxCell>
                <mxCell id="5" value="1" style="text;html=1;align=center;verticalAlign=middle;resizable=0;points=[];autosize=1;" vertex="1" parent="1">
                    <mxGeometry x="320" y="180" width="20" height="20" as="geometry"/>
                </mxCell>
                <mxCell id="6" value="2" style="text;html=1;align=center;verticalAlign=middle;resizable=0;points=[];autosize=1;" vertex="1" parent="1">
                    <mxGeometry x="451" y="180" width="20" height="20" as="geometry"/>
                </mxCell>
                <mxCell id="7" value="0" style="text;html=1;align=center;verticalAlign=middle;resizable=0;points=[];autosize=1;" vertex="1" parent="1">
                    <mxGeometry x="140" y="210" width="20" height="20" as="geometry"/>
                </mxCell>
                <mxCell id="8" value="1" style="text;html=1;align=center;verticalAlign=middle;resizable=0;points=[];autosize=1;" vertex="1" parent="1">
                    <mxGeometry x="140" y="290" width="20" height="20" as="geometry"/>
                </mxCell>
                <mxCell id="9" value="2" style="text;html=1;align=center;verticalAlign=middle;resizable=0;points=[];autosize=1;" vertex="1" parent="1">
                    <mxGeometry x="140" y="370" width="20" height="20" as="geometry"/>
                </mxCell>
                <mxCell id="10" value="0.5" style="text;html=1;align=center;verticalAlign=middle;resizable=0;points=[];autosize=1;" vertex="1" parent="1">
                    <mxGeometry x="260" y="180" width="30" height="20" as="geometry"/>
                </mxCell>
                <mxCell id="11" value="1.5" style="text;html=1;align=center;verticalAlign=middle;resizable=0;points=[];autosize=1;" vertex="1" parent="1">
                    <mxGeometry x="384" y="180" width="30" height="20" as="geometry"/>
                </mxCell>
                <mxCell id="12" value="0.5" style="text;html=1;align=center;verticalAlign=middle;resizable=0;points=[];autosize=1;" vertex="1" parent="1">
                    <mxGeometry x="135" y="250" width="30" height="20" as="geometry"/>
                </mxCell>
                <mxCell id="13" value="1.5" style="text;html=1;align=center;verticalAlign=middle;resizable=0;points=[];autosize=1;" vertex="1" parent="1">
                    <mxGeometry x="135" y="330" width="30" height="20" as="geometry"/>
                </mxCell>
                <mxCell id="14" value="x" style="text;html=1;align=center;verticalAlign=middle;resizable=0;points=[];autosize=1;" vertex="1" parent="1">
                    <mxGeometry x="140" y="190" width="20" height="20" as="geometry"/>
                </mxCell>
                <mxCell id="15" value="y" style="text;html=1;align=center;verticalAlign=middle;resizable=0;points=[];autosize=1;" vertex="1" parent="1">
                    <mxGeometry x="160" y="180" width="20" height="20" as="geometry"/>
                </mxCell>
                <mxCell id="17" value="dp[x][0]" style="text;html=1;align=center;verticalAlign=middle;resizable=0;points=[];autosize=1;" vertex="1" parent="1">
                    <mxGeometry x="185" y="150" width="50" height="20" as="geometry"/>
                </mxCell>
                <mxCell id="18" value="dp[x][1]" style="text;html=1;align=center;verticalAlign=middle;resizable=0;points=[];autosize=1;" vertex="1" parent="1">
                    <mxGeometry x="250" y="150" width="50" height="20" as="geometry"/>
                </mxCell>
                <mxCell id="19" value="dp[x][2]" style="text;html=1;align=center;verticalAlign=middle;resizable=0;points=[];autosize=1;" vertex="1" parent="1">
                    <mxGeometry x="305" y="150" width="50" height="20" as="geometry"/>
                </mxCell>
                <mxCell id="20" value="dp[x][3]" style="text;html=1;align=center;verticalAlign=middle;resizable=0;points=[];autosize=1;" vertex="1" parent="1">
                    <mxGeometry x="379" y="150" width="50" height="20" as="geometry"/>
                </mxCell>
                <mxCell id="21" value="dp[x][4]" style="text;html=1;align=center;verticalAlign=middle;resizable=0;points=[];autosize=1;" vertex="1" parent="1">
                    <mxGeometry x="436" y="150" width="50" height="20" as="geometry"/>
                </mxCell>
                <mxCell id="24" value="" style="shape=curlyBracket;whiteSpace=wrap;html=1;rounded=1;rotation=90;" vertex="1" parent="1">
                    <mxGeometry x="363" y="-10" width="20" height="210" as="geometry"/>
                </mxCell>
                <mxCell id="25" value="2y" style="text;html=1;align=center;verticalAlign=middle;resizable=0;points=[];autosize=1;" vertex="1" parent="1">
                    <mxGeometry x="359" y="50" width="30" height="20" as="geometry"/>
                </mxCell>
                <mxCell id="30" value="dp[0][y]" style="text;html=1;align=center;verticalAlign=middle;resizable=0;points=[];autosize=1;" vertex="1" parent="1">
                    <mxGeometry x="85" y="210" width="50" height="20" as="geometry"/>
                </mxCell>
                <mxCell id="31" value="dp[1][y]" style="text;html=1;align=center;verticalAlign=middle;resizable=0;points=[];autosize=1;" vertex="1" parent="1">
                    <mxGeometry x="85" y="250" width="50" height="20" as="geometry"/>
                </mxCell>
                <mxCell id="32" value="dp[2][y]" style="text;html=1;align=center;verticalAlign=middle;resizable=0;points=[];autosize=1;" vertex="1" parent="1">
                    <mxGeometry x="85" y="290" width="50" height="20" as="geometry"/>
                </mxCell>
                <mxCell id="33" value="dp[3][y]" style="text;html=1;align=center;verticalAlign=middle;resizable=0;points=[];autosize=1;" vertex="1" parent="1">
                    <mxGeometry x="85" y="330" width="50" height="20" as="geometry"/>
                </mxCell>
                <mxCell id="34" value="dp[4][y]" style="text;html=1;align=center;verticalAlign=middle;resizable=0;points=[];autosize=1;" vertex="1" parent="1">
                    <mxGeometry x="85" y="370" width="50" height="20" as="geometry"/>
                </mxCell>
                <mxCell id="35" value="" style="shape=curlyBracket;whiteSpace=wrap;html=1;rounded=1;rotation=-1;" vertex="1" parent="1">
                    <mxGeometry x="50.52" y="250" width="20" height="150" as="geometry"/>
                </mxCell>
                <mxCell id="36" value="2x" style="text;html=1;align=center;verticalAlign=middle;resizable=0;points=[];autosize=1;" vertex="1" parent="1">
                    <mxGeometry x="10" y="315" width="30" height="20" as="geometry"/>
                </mxCell>
            </root>
        </mxGraphModel>
    </diagram>
</mxfile>